<svg id="Layer_1" data-name="Layer 1" xmlns="http://www.w3.org/2000/svg" viewBox="0 0 209.36 197.76"><defs><style>.cls-1{fill:#f1cf41;stroke:#eed87b;stroke-width:6px;}.cls-1,.cls-3{stroke-miterlimit:10;}.cls-2{fill:#331e02;}.cls-3{fill:none;stroke:#331e02;stroke-linecap:round;stroke-width:3px;}</style></defs><title>angry</title><ellipse class="cls-1" cx="104.68" cy="98.88" rx="101.68" ry="95.88"/><ellipse class="cls-2" cx="139" cy="98.23" rx="8.1" ry="8.29"/><ellipse class="cls-2" cx="66" cy="97.23" rx="8.1" ry="8.29"/><path class="cls-3" d="M-694.39,1778.54s34-26.18,51.72-6.93" transform="translate(771.49 -1649.79)"/><path class="cls-2" d="M-692.6,1743.66s-0.65-.44-1.72-1.26c-0.54-.4-1.17-0.93-1.92-1.48s-1.63-1.08-2.51-1.73a14.34,14.34,0,0,0-1.46-.94l-1.58-1c-1-.72-2.26-1.33-3.45-2s-2.49-1.33-3.76-2-2.64-1.3-4-2l-4-1.87c-1.36-.56-2.65-1.2-4-1.72s-2.54-1.09-3.74-1.56l-3.37-1.39-5.11-2.06-2-.81a20.9,20.9,0,0,1,2.13,0,45.53,45.53,0,0,1,5.57.63c1.14,0.2,2.38.41,3.67,0.74s2.65,0.67,4,1.1c0.7,0.2,1.4.43,2.1,0.69s1.42,0.51,2.13.78c1.42,0.56,2.84,1.19,4.26,1.84s2.79,1.37,4.1,2.19c0.66,0.39,1.31.8,1.94,1.2a20.07,20.07,0,0,1,1.84,1.26,36.63,36.63,0,0,1,3.32,2.61,34.64,34.64,0,0,1,2.75,2.61c0.81,0.87,1.51,1.69,2.13,2.41s1,1.43,1.39,2C-693,1743-692.6,1743.66-692.6,1743.66Z" transform="translate(771.49 -1649.79)"/><path class="cls-2" d="M-642.61,1742.16s0.39-.67,1.14-1.8c0.39-.55.8-1.26,1.39-2s1.31-1.54,2.13-2.41a34.64,34.64,0,0,1,2.75-2.61,36.63,36.63,0,0,1,3.32-2.61,20.07,20.07,0,0,1,1.84-1.26c0.64-.4,1.28-0.8,1.94-1.2,1.3-.82,2.72-1.46,4.1-2.19s2.83-1.28,4.26-1.84q1.07-.41,2.13-0.78c0.7-.26,1.4-0.5,2.1-0.69,1.39-.43,2.74-0.8,4-1.1s2.53-.53,3.67-0.74a45.53,45.53,0,0,1,5.57-.63,20.9,20.9,0,0,1,2.13,0l-2,.81-5.11,2.06-3.37,1.39c-1.2.48-2.45,1-3.74,1.56s-2.6,1.16-4,1.72l-4,1.87c-1.32.68-2.68,1.28-4,2s-2.58,1.31-3.76,2-2.4,1.32-3.45,2l-1.58,1a14.34,14.34,0,0,0-1.46.94c-0.89.65-1.75,1.22-2.51,1.73s-1.38,1.08-1.92,1.48C-642,1741.73-642.61,1742.16-642.61,1742.16Z" transform="translate(771.49 -1649.79)"/></svg>