<svg id="Layer_1" data-name="Layer 1" xmlns="http://www.w3.org/2000/svg" xmlns:xlink="http://www.w3.org/1999/xlink" viewBox="0 0 209.36 201.77"><defs><style>.cls-1,.cls-9{fill:#f1cf41;stroke-width:6px;}.cls-1{stroke:#eed87b;}.cls-1,.cls-4,.cls-6,.cls-7,.cls-8,.cls-9{stroke-miterlimit:10;}.cls-2{fill:#331e02;}.cls-3{fill:#fff;}.cls-4{fill:#5fb2ec;stroke:#fff;stroke-linecap:round;stroke-width:0.25px;}.cls-5{fill:#95cfe9;}.cls-6{stroke:#331e02;fill:url(#linear-gradient);}.cls-7,.cls-8{fill:none;}.cls-7{stroke:#282828;}.cls-8{stroke:#686868;stroke-width:0.5px;}.cls-9{stroke:#dfb83f;}</style><linearGradient id="linear-gradient" x1="63.49" y1="133.93" x2="146.49" y2="133.93" gradientUnits="userSpaceOnUse"><stop offset="0" stop-color="#a9a9a9"/><stop offset="0.04" stop-color="#c1c1c1"/><stop offset="0.09" stop-color="#d8d8d8"/><stop offset="0.14" stop-color="#e9e9e9"/><stop offset="0.21" stop-color="#f6f6f6"/><stop offset="0.3" stop-color="#fdfdfd"/><stop offset="0.51" stop-color="#fff"/><stop offset="0.71" stop-color="#fdfdfd"/><stop offset="0.8" stop-color="#f6f6f6"/><stop offset="0.86" stop-color="#e9e9e9"/><stop offset="0.92" stop-color="#d8d8d8"/><stop offset="0.96" stop-color="#c1c1c1"/><stop offset="1" stop-color="#a9a9a9"/></linearGradient></defs><title>anxious</title><ellipse class="cls-1" cx="104.68" cy="98.88" rx="101.68" ry="95.88"/><ellipse class="cls-2" cx="140.96" cy="92.2" rx="9.53" ry="9.44"/><ellipse class="cls-3" cx="141.17" cy="88.69" rx="5.51" ry="5.05"/><ellipse class="cls-3" cx="144.03" cy="97.14" rx="3.39" ry="3.18"/><ellipse class="cls-2" cx="67.28" cy="91.83" rx="9.53" ry="9.44"/><ellipse class="cls-3" cx="67.49" cy="88.32" rx="5.51" ry="5.05"/><ellipse class="cls-3" cx="70.35" cy="96.77" rx="3.39" ry="3.18"/><path class="cls-2" d="M1251.21,1215.07s-0.22.75-.67,2c-0.24.63-.47,1.42-0.87,2.27s-0.9,1.82-1.48,2.86a34.62,34.62,0,0,1-2,3.2,36.65,36.65,0,0,1-2.59,3.33,20.08,20.08,0,0,1-1.48,1.67c-0.52.54-1.05,1.09-1.6,1.63-1.07,1.11-2.29,2.08-3.45,3.12s-2.44,1.93-3.68,2.82q-0.94.65-1.88,1.27c-0.62.42-1.24,0.82-1.87,1.18-1.24.75-2.46,1.44-3.65,2s-2.33,1.13-3.38,1.6a45.53,45.53,0,0,1-5.25,2,20.91,20.91,0,0,1-2.06.54l1.71-1.26,4.46-3.24,2.94-2.17c1-.75,2.13-1.58,3.25-2.42s2.24-1.76,3.42-2.62l3.45-2.78c1.11-1,2.29-1.89,3.36-2.88s2.19-1.9,3.15-2.89,2-1.86,2.85-2.81l1.29-1.34a14.36,14.36,0,0,0,1.19-1.27c0.71-.85,1.4-1.6,2-2.29s1.08-1.38,1.5-1.9C1250.69,1215.65,1251.21,1215.07,1251.21,1215.07Z" transform="translate(-1174.51 -1150.79)"/><path class="cls-2" d="M1304.83,1217.85s0.58,0.52,1.52,1.49c0.48,0.47,1,1.09,1.69,1.73s1.46,1.3,2.25,2.07a14.36,14.36,0,0,0,1.31,1.14l1.42,1.2c0.93,0.86,2.05,1.63,3.13,2.5s2.28,1.67,3.43,2.55,2.43,1.66,3.63,2.52l3.72,2.42c1.26,0.74,2.45,1.56,3.67,2.26s2.36,1.43,3.48,2.07l3.14,1.86,4.77,2.76,1.83,1.07a20.92,20.92,0,0,1-2.11-.33,45.52,45.52,0,0,1-5.42-1.41c-1.1-.36-2.3-0.74-3.53-1.25s-2.53-1-3.84-1.66c-0.67-.29-1.32-0.63-2-1s-1.33-.7-2-1.07c-1.33-.76-2.65-1.58-4-2.42s-2.57-1.75-3.75-2.75c-0.6-.48-1.18-1-1.76-1.46a20.1,20.1,0,0,1-1.65-1.5,36.65,36.65,0,0,1-2.92-3,34.61,34.61,0,0,1-2.35-3c-0.68-1-1.26-1.89-1.76-2.69s-0.8-1.56-1.1-2.16C1305.13,1218.57,1304.83,1217.85,1304.83,1217.85Z" transform="translate(-1174.51 -1150.79)"/><path class="cls-4" d="M1330.85,1198.35c3.75,6.75-.25,13.88-5.83,13.92-4.42,0-8.83-7-6.83-14.17,3.46-12.41,8-17.08,6.83-12.83C1324.85,1185.85,1325,1187.88,1330.85,1198.35Z" transform="translate(-1174.51 -1150.79)"/><path class="cls-5" d="M1329.06,1200.85s0.15,0.08.38,0.24a1,1,0,0,1,.36.39l0.2,0.32a3.15,3.15,0,0,1,.13.35l0.12,0.4c0,0.14,0,.28.05,0.43a4.1,4.1,0,0,1,0,.91,5.48,5.48,0,0,1-.17.93c-0.08.31-.19,0.6-0.3,0.9a8.64,8.64,0,0,1-.89,1.59,7.09,7.09,0,0,1-1,1.19,5.25,5.25,0,0,1-1.3.92,9.83,9.83,0,0,1,.32-1.53A24,24,0,0,1,1328,1205c0.2-.5.42-1,0.59-1.45,0.08-.23.19-0.45,0.24-0.66a3.83,3.83,0,0,0,.18-0.59,3.5,3.5,0,0,0,.1-0.5,1,1,0,0,0,0-.46C1329.07,1201,1329.06,1200.85,1329.06,1200.85Z" transform="translate(-1174.51 -1150.79)"/><path class="cls-4" d="M1361.85,1227.35c3.75,6.75-.25,13.88-5.83,13.92-4.42,0-8.83-7-6.83-14.17,3.46-12.41,8-17.08,6.83-12.83C1355.85,1214.85,1356,1216.88,1361.85,1227.35Z" transform="translate(-1174.51 -1150.79)"/><path class="cls-5" d="M1360.06,1229.85s0.15,0.08.38,0.24a1,1,0,0,1,.36.39l0.2,0.32a3.15,3.15,0,0,1,.13.35l0.12,0.4c0,0.14,0,.28.05,0.43a4.1,4.1,0,0,1,0,.91,5.48,5.48,0,0,1-.17.93c-0.08.31-.19,0.6-0.3,0.9a8.64,8.64,0,0,1-.89,1.59,7.09,7.09,0,0,1-1,1.19,5.25,5.25,0,0,1-1.3.92,9.83,9.83,0,0,1,.32-1.53A24,24,0,0,1,1359,1234c0.2-.5.42-1,0.59-1.45,0.08-.23.19-0.45,0.24-0.66a3.83,3.83,0,0,0,.18-0.59,3.5,3.5,0,0,0,.1-0.5,1,1,0,0,0,0-.46C1360.07,1230,1360.06,1229.85,1360.06,1229.85Z" transform="translate(-1174.51 -1150.79)"/><path class="cls-4" d="M1205.15,1208.35c-3.75,6.75.25,13.88,5.83,13.92,4.42,0,8.83-7,6.83-14.17-3.46-12.41-8-17.08-6.83-12.83C1211.15,1195.85,1211,1197.88,1205.15,1208.35Z" transform="translate(-1174.51 -1150.79)"/><path class="cls-5" d="M1206.94,1210.85s0,0.17,0,.45a1,1,0,0,0,0,.46,3.49,3.49,0,0,0,.1.5,3.83,3.83,0,0,0,.18.59c0.05,0.2.16,0.43,0.24,0.66,0.17,0.46.39,0.95,0.59,1.45a24,24,0,0,1,1.06,2.94,9.83,9.83,0,0,1,.32,1.53,5.25,5.25,0,0,1-1.3-.92,7.09,7.09,0,0,1-1-1.19,8.64,8.64,0,0,1-.89-1.59c-0.11-.3-0.22-0.59-0.3-0.9a5.48,5.48,0,0,1-.17-0.93,4.1,4.1,0,0,1,0-.91c0-.15,0-0.29.05-0.43l0.12-.4a3.15,3.15,0,0,1,.13-0.35l0.2-.32a1,1,0,0,1,.36-0.39C1206.79,1210.93,1206.94,1210.85,1206.94,1210.85Z" transform="translate(-1174.51 -1150.79)"/><rect class="cls-6" x="63.49" y="120.2" width="83" height="27.46" rx="13.73" ry="13.73"/><line class="cls-7" x1="146.49" y1="133.93" x2="63.49" y2="133.93"/><line class="cls-8" x1="104.86" y1="120.53" x2="104.87" y2="147.43"/><line class="cls-8" x1="91.18" y1="120.16" x2="91.16" y2="147.66"/><line class="cls-8" x1="79.69" y1="120.2" x2="79.69" y2="147.66"/><line class="cls-8" x1="70.47" y1="122.49" x2="70.47" y2="145.6"/><line class="cls-8" x1="118.3" y1="120.23" x2="118.33" y2="147.89"/><line class="cls-8" x1="130.29" y1="120.2" x2="130.29" y2="147.43"/><line class="cls-8" x1="140.02" y1="122.57" x2="139.96" y2="145.26"/><ellipse class="cls-9" cx="150.18" cy="167.88" rx="31.18" ry="29.88"/><ellipse class="cls-9" cx="62.18" cy="168.88" rx="31.18" ry="29.88"/></svg>