<svg id="Layer_1" data-name="Layer 1" xmlns="http://www.w3.org/2000/svg" viewBox="0 0 209.36 197.76"><defs><style>.cls-1{fill:#43b1ee;stroke:#6abed8;stroke-miterlimit:10;stroke-width:6px;}.cls-2{fill:#331e02;}</style></defs><title>depressed</title><ellipse class="cls-1" cx="104.68" cy="98.88" rx="101.68" ry="95.88"/><path class="cls-2" d="M1237.75,549.18l0,0.49c0,0.31-.06.78-0.16,1.35a16,16,0,0,1-.48,2.09,20.7,20.7,0,0,1-1,2.63c-0.23.46-.49,0.94-0.75,1.44s-0.62,1-.95,1.47a20,20,0,0,1-2.49,2.89,21.38,21.38,0,0,1-3.23,2.55,23.78,23.78,0,0,1-3.78,1.92,24.38,24.38,0,0,1-8,1.68,25.27,25.27,0,0,1-6.93-.66,21.45,21.45,0,0,1-4.6-1.64,11.17,11.17,0,0,1-1.62-.93l0.48-.07c0.31,0,.77-0.12,1.33-0.18,1.14-.16,2.73-0.37,4.57-0.66s3.94-.64,6.09-1.14c1.08-.23,2.16-0.55,3.26-0.85s2.17-.67,3.21-1.12,2.06-.89,3.06-1.37l1.44-.8c0.45-.3.94-0.55,1.37-0.85,0.89-.59,1.73-1.2,2.52-1.82l1.14-.94,1-.94c0.65-.63,1.29-1.22,1.81-1.76s1-1,1.41-1.45,0.71-.77.93-1Z" transform="translate(-1148.51 -428.79)"/><path class="cls-2" d="M1269.73,549.18l0.35,0.34c0.21,0.23.55,0.55,0.93,1s0.9,0.9,1.41,1.45,1.16,1.13,1.81,1.76l1,0.94,1.14,0.94c0.79,0.63,1.63,1.24,2.52,1.82,0.44,0.3.92,0.55,1.37,0.85l1.44,0.8c1,0.47,2,1,3.06,1.37s2.13,0.77,3.21,1.12,2.17,0.62,3.26.85c2.15,0.5,4.25.85,6.09,1.14s3.43,0.49,4.57.66c0.56,0.06,1,.15,1.33.18l0.48,0.07a11.17,11.17,0,0,1-1.62.93,21.45,21.45,0,0,1-4.6,1.64,25.27,25.27,0,0,1-6.93.66,24.38,24.38,0,0,1-8-1.68,23.78,23.78,0,0,1-3.78-1.92,21.38,21.38,0,0,1-3.23-2.55,20,20,0,0,1-2.49-2.89c-0.33-.51-0.67-1-0.95-1.47s-0.52-1-.75-1.44a20.69,20.69,0,0,1-1-2.63,16,16,0,0,1-.48-2.09c-0.1-.57-0.12-1-0.16-1.35Z" transform="translate(-1148.51 -428.79)"/><path class="cls-2" d="M1270.9,592l-0.41-.14c-0.25-.11-0.65-0.24-1.11-0.45s-1-.37-1.64-0.62-1.32-.47-2.06-0.69l-1.15-.33c-0.4-.09-0.81-0.2-1.22-0.3s-0.84-.16-1.27-0.25-0.87-.13-1.32-0.19-0.9-.09-1.36-0.12-0.92-.06-1.39-0.06-0.94,0-1.41,0-1,0-1.43.07c-1,0-1.93.18-2.89,0.31s-1.92.31-2.86,0.48-1.86.37-2.73,0.58-1.72.4-2.51,0.58l-3.93.94c-0.48.13-.89,0.2-1.15,0.27l-0.42.09a9.73,9.73,0,0,1,.92-1.36,18.71,18.71,0,0,1,3-3,22.41,22.41,0,0,1,5.2-3.13c0.52-.22,1.05-0.43,1.61-0.61a15.3,15.3,0,0,1,1.71-.5,20.79,20.79,0,0,1,3.63-.59,19.26,19.26,0,0,1,3.73.11,17.6,17.6,0,0,1,3.55.82c0.55,0.22,1.1.42,1.61,0.66s1,0.51,1.46.78,0.88,0.58,1.29.87,0.76,0.62,1.1.93a15.65,15.65,0,0,1,1.69,1.83,13.85,13.85,0,0,1,1.05,1.59c0.25,0.44.41,0.83,0.53,1.07Z" transform="translate(-1148.51 -428.79)"/><path class="cls-2" d="M1232.79,531.54s-0.29.72-.88,1.94c-0.31.6-.61,1.36-1.1,2.16s-1.09,1.71-1.77,2.69a34.64,34.64,0,0,1-2.36,3,36.65,36.65,0,0,1-2.93,3,20,20,0,0,1-1.65,1.5c-0.57.48-1.16,1-1.76,1.45-1.18,1-2.49,1.83-3.75,2.74s-2.63,1.66-4,2.42q-1,.55-2,1.07c-0.66.35-1.32,0.69-2,1-1.31.62-2.6,1.18-3.84,1.65s-2.43.88-3.53,1.24a45.52,45.52,0,0,1-5.43,1.4,20.91,20.91,0,0,1-2.11.32l1.83-1.07,4.78-2.75,3.15-1.85c1.12-.64,2.28-1.35,3.48-2.07s2.41-1.51,3.68-2.25l3.72-2.41c1.21-.85,2.47-1.64,3.64-2.51s2.38-1.66,3.44-2.55,2.19-1.64,3.13-2.5L1226,538a14.35,14.35,0,0,0,1.31-1.14c0.79-.77,1.56-1.45,2.25-2.06s1.22-1.26,1.69-1.73C1232.21,532.06,1232.79,531.54,1232.79,531.54Z" transform="translate(-1148.51 -428.79)"/><path class="cls-2" d="M1273.73,533.1s0.62,0.47,1.65,1.35c0.52,0.43,1.12,1,1.84,1.58s1.56,1.17,2.42,1.86a14.36,14.36,0,0,0,1.4,1l1.52,1.07c1,0.78,2.19,1.45,3.33,2.22s2.41,1.46,3.64,2.24,2.56,1.44,3.84,2.19l3.91,2.08c1.32,0.63,2.58,1.34,3.86,1.93s2.47,1.22,3.65,1.76l3.29,1.58,5,2.34,1.92,0.91a20.91,20.91,0,0,1-2.13-.14,45.53,45.53,0,0,1-5.53-.93c-1.13-.27-2.36-0.54-3.62-0.94s-2.61-.81-4-1.32c-0.69-.23-1.37-0.51-2.06-0.8s-1.39-.58-2.09-0.89c-1.39-.64-2.77-1.34-4.15-2.07s-2.72-1.52-4-2.41c-0.64-.43-1.26-0.86-1.88-1.3a20.07,20.07,0,0,1-1.77-1.35,36.64,36.64,0,0,1-3.18-2.78,34.66,34.66,0,0,1-2.6-2.76c-0.76-.91-1.42-1.77-2-2.52s-0.93-1.49-1.28-2.06C1274.09,533.79,1273.73,533.1,1273.73,533.1Z" transform="translate(-1148.51 -428.79)"/></svg>