<svg id="Layer_1" data-name="Layer 1" xmlns="http://www.w3.org/2000/svg" viewBox="0 0 209.36 197.76"><defs><style>.cls-1{fill:#f1cf41;stroke:#eed87b;stroke-width:6px;}.cls-1,.cls-5{stroke-miterlimit:10;}.cls-2{fill:#86000a;}.cls-3{fill:#b94a4a;}.cls-4{fill:#fff;}.cls-5{fill:none;stroke:#331e02;}.cls-6{fill:#331e02;}</style></defs><title>happy3</title><ellipse class="cls-1" cx="104.68" cy="98.88" rx="101.68" ry="95.88"/><path class="cls-2" d="M-139.68-182.24c6.12-.53,2.9,11.31-4.63,22.82-5.2-5.34-12.68-9.59-21.52-12.18A103.55,103.55,0,0,0-139.68-182.24Z" transform="translate(289.49 295.21)"/><path class="cls-3" d="M-165.82-171.6c8.84,2.59,16.32,6.84,21.52,12.18a68.28,68.28,0,0,1-9.63,11.72A47.3,47.3,0,0,1-187.21-135c-9.66-.32-17-1.64-31.11-13.2a47.38,47.38,0,0,1-9.09-10.23c4.87-5.45,12.05-9.86,20.62-12.66A87.74,87.74,0,0,0-165.82-171.6Z" transform="translate(289.49 295.21)"/><path class="cls-4" d="M-186.34-178.06c25.42,0,23.76-2.2,46.66-4.18a103.55,103.55,0,0,1-26.14,10.64,87.74,87.74,0,0,1-41,.57c-15.24-3.47-24.67-10.06-24.93-11.2C-214.43-178.94-211.76-178.06-186.34-178.06Z" transform="translate(289.49 295.21)"/><path class="cls-2" d="M-206.78-171c-8.57,2.8-15.75,7.21-20.62,12.66-7.83-11.68-10.42-25-4.3-23.86C-231.45-181.09-222-174.51-206.78-171Z" transform="translate(289.49 295.21)"/><path class="cls-5" d="M-139.68-182.24c6.12-.53,2.9,11.31-4.63,22.82a68.28,68.28,0,0,1-9.63,11.72A47.3,47.3,0,0,1-187.21-135c-9.66-.32-17-1.64-31.11-13.2a47.38,47.38,0,0,1-9.09-10.23c-7.83-11.68-10.42-25-4.3-23.86,17.28,3.3,19.95,4.18,45.37,4.18S-162.58-180.26-139.68-182.24Z" transform="translate(289.49 295.21)"/><path class="cls-5" d="M-231.71-182.24c0.26,1.15,9.68,7.73,24.93,11.2a87.74,87.74,0,0,0,41-.57,103.55,103.55,0,0,0,26.14-10.64" transform="translate(289.49 295.21)"/><path class="cls-6" d="M-140.3-194.65l-0.78-1.53c-0.5-1-1.21-2.33-2.09-3.93-0.46-.79-1-1.64-1.49-2.51a28.17,28.17,0,0,0-1.83-2.59,11.94,11.94,0,0,0-2.23-2.23,4.19,4.19,0,0,0-2.47-.94,4.33,4.33,0,0,0-2.51.93,4.22,4.22,0,0,0-.61.49c-0.2.17-.41,0.32-0.6,0.51-0.37.4-.75,0.77-1.1,1.18s-0.67.85-1,1.25l-0.92,1.28c-0.6.83-1.1,1.69-1.62,2.44s-0.91,1.5-1.32,2.14l-1,1.67c-0.57.93-.92,1.45-0.92,1.45s0.11-.62.37-1.68c0.14-.53.27-1.19,0.51-1.91s0.49-1.55.82-2.44,0.71-1.84,1.24-2.81l0.79-1.5c0.3-.5.64-1,1-1.51s0.78-1,1.18-1.49a13.54,13.54,0,0,1,1.49-1.39,6.93,6.93,0,0,1,4.25-1.6,6.8,6.8,0,0,1,4.25,1.64,12.38,12.38,0,0,1,2.6,3,20.74,20.74,0,0,1,1.65,3.09,25.9,25.9,0,0,1,1.1,2.87,31.22,31.22,0,0,1,1.08,4.43C-140.34-195.28-140.3-194.65-140.3-194.65Z" transform="translate(289.49 295.21)"/><path class="cls-6" d="M-208.3-195.65l-0.78-1.53c-0.5-1-1.21-2.33-2.09-3.93-0.46-.79-1-1.64-1.49-2.51a28.17,28.17,0,0,0-1.83-2.59,11.94,11.94,0,0,0-2.23-2.23,4.19,4.19,0,0,0-2.47-.94,4.33,4.33,0,0,0-2.51.93,4.22,4.22,0,0,0-.61.49c-0.2.17-.41,0.32-0.6,0.51-0.37.4-.75,0.77-1.1,1.18s-0.67.85-1,1.25l-0.92,1.28c-0.6.83-1.1,1.69-1.62,2.44s-0.91,1.5-1.32,2.14l-1,1.67c-0.57.93-.92,1.45-0.92,1.45s0.11-.62.37-1.68c0.14-.53.27-1.19,0.51-1.91s0.49-1.55.82-2.44,0.71-1.84,1.24-2.81l0.79-1.5c0.3-.5.64-1,1-1.51s0.78-1,1.18-1.49a13.54,13.54,0,0,1,1.49-1.39,6.93,6.93,0,0,1,4.25-1.6,6.8,6.8,0,0,1,4.25,1.64,12.38,12.38,0,0,1,2.6,3,20.74,20.74,0,0,1,1.65,3.09,25.9,25.9,0,0,1,1.1,2.87,31.22,31.22,0,0,1,1.08,4.43C-208.34-196.28-208.3-195.65-208.3-195.65Z" transform="translate(289.49 295.21)"/></svg>