<svg id="Layer_1" data-name="Layer 1" xmlns="http://www.w3.org/2000/svg" xmlns:xlink="http://www.w3.org/1999/xlink" viewBox="0 0 293.43 297.5"><defs><style>.cls-1{opacity:0.4;}.cls-2{fill:#fcee21;}.cls-3{fill:#fff;}.cls-4{stroke:#ff0;stroke-width:6px;fill:url(#radial-gradient);}.cls-4,.cls-8,.cls-9{stroke-miterlimit:10;}.cls-5{fill:#331e02;}.cls-6{fill:#b43737;}.cls-7{fill:#7f2828;}.cls-10,.cls-8,.cls-9{fill:none;stroke:#000;}.cls-10,.cls-9{stroke-width:0.5px;}.cls-10{stroke-linecap:round;stroke-linejoin:round;}</style><radialGradient id="radial-gradient" cx="150.15" cy="154.15" r="98.82" gradientUnits="userSpaceOnUse"><stop offset="0.65" stop-color="#fbedb4"/><stop offset="0.76" stop-color="#fbed8c"/><stop offset="0.99" stop-color="#fbed26"/><stop offset="1" stop-color="#fbed21"/></radialGradient></defs><title>manic</title><g class="cls-1"><path class="cls-2" d="M1120.06,323.09c47.88-50.89,25.46-75.64-13.56-104.3,18.47-7.45,44.53-4.07,57.06-21.7,12.66-17.81,0-44.77,2.15-65.06,23.11,14,33.56,29.22,62.34,23.06,30.46-6.52,36.29-29.2,47.66-54.09,5.76,22.69,6.28,50.89,28.83,63.09,17.08,9.24,49.42,6.89,66.06-5.8-7.71,17.07-17.19,30.86-16.64,52.35,0.41,16.1,26.4,43.57,43,47-33.53,9.92-66.95,37-14.45,88-55.5-22.5-75-12-77.24,49.91-13.1-31.47-32.67-38.92-52.81-41-27.24-2.77-39.3,7.71-56.92,28.45C1198.06,324.59,1169.56,314.09,1120.06,323.09Z" transform="translate(-1105.04 -99.52)"/><path class="cls-3" d="M1121.12,324.15c14.87-16,32.54-38,26.32-61.48-5.28-19.89-24.51-33.62-40.18-45.17l-0.36,2.74c18.44-7.15,43.47-4,56.92-21,15-19.08,1.51-45.65,3.39-67.19l-2.26,1.3c11.14,6.84,21.23,16,33.36,21.14s25.74,4.24,37.92-.12c23.63-8.46,31.28-31.67,40.79-52.59l-2.74-.36c5.53,22.24,6.41,51,28.92,63.65,10.08,5.66,22.53,6.76,33.86,5.92,12-.9,24.48-4.12,34.32-11.38l-2.05-2.05c-8.52,18.65-23.5,42.13-14.25,63.2,4.09,9.31,11,17.55,18.47,24.39,6.51,6,14.26,11.92,23.06,13.92v-2.89c-15.82,4.76-33.88,13.37-40.53,29.64-9.35,22.86,10.32,46,25.42,60.85l1.46-2.51c-15.35-6.18-34.05-13.76-51-10.06-13.18,2.89-20.23,14.23-23.68,26.47-3.19,11.31-4.05,23.25-4.5,34.94l2.8-.76c-5.11-12-12.15-23.34-22.88-31.07-8.26-5.95-18.05-9-28.05-10.27-11.53-1.52-23.41-1.11-34,4.17-11,5.49-19.34,15.16-27.17,24.35l2.56,1.06c0.75-19.62-.95-44-18.67-56.28-16.66-11.57-40.06-8.4-58.74-5.06-1.9.34-1.09,3.23,0.8,2.89,17.65-3.16,39.83-6.26,55.75,4.3,17.3,11.47,18.57,35.47,17.86,54.15a1.51,1.51,0,0,0,2.56,1.06c7.32-8.59,15-17.59,25-23.08s21.69-6.08,32.93-4.69c9.46,1.17,18.73,3.89,26.65,9.33C1292,373,1299,384.43,1304,396.26c0.62,1.47,2.74.59,2.8-.76,0.47-12.21,1.34-24.75,5.09-36.46,2.37-7.43,6.24-14.88,13.11-19s15.38-4.29,23.15-3.21c11.73,1.63,23.07,5.84,34,10.24,1.44,0.58,2.46-1.52,1.46-2.51-14.28-14-34.07-36.63-24.46-58.36,6.58-14.88,23.58-22.71,38.25-27.12a1.51,1.51,0,0,0,0-2.89c-8.51-1.93-16-7.76-22.22-13.6-6.8-6.36-13.12-13.83-17.06-22.33-9.35-20.17,5.6-43.24,13.79-61.17,0.55-1.2-.71-3-2.05-2.05-9.42,6.94-21.26,10.11-32.81,11-11.26.84-23.7-.2-33.53-6.21-20.54-12.55-21.15-40.24-26.35-61.16a1.52,1.52,0,0,0-2.74-.36c-9.07,20-16.33,43.1-39,51.21-12.46,4.46-26.16,5.06-38.24-.77-11-5.3-20.37-13.58-30.72-19.95a1.52,1.52,0,0,0-2.26,1.3c-1.82,20.84,12,48.1-3.35,66.09-13.14,15.45-37.31,12.45-54.76,19.22a1.52,1.52,0,0,0-.36,2.74c14.78,10.89,33.11,23.89,38.55,42.45,6.6,22.56-11,44.18-25.29,59.48C1117.68,323.44,1119.8,325.57,1121.12,324.15Z" transform="translate(-1105.04 -99.52)"/></g><ellipse class="cls-4" cx="150.15" cy="154.15" rx="101.68" ry="95.88"/><ellipse class="cls-5" cx="193.68" cy="145.51" rx="11.28" ry="11.4"/><ellipse class="cls-3" cx="193.93" cy="141.27" rx="6.52" ry="6.1"/><ellipse class="cls-3" cx="197.32" cy="151.48" rx="4.02" ry="3.84"/><ellipse class="cls-5" cx="106.49" cy="145.06" rx="11.28" ry="11.4"/><ellipse class="cls-3" cx="106.74" cy="140.81" rx="6.52" ry="6.1"/><ellipse class="cls-3" cx="110.13" cy="151.02" rx="4.02" ry="3.84"/><path class="cls-6" d="M1277.55,310.26s0,0.1,0,.15l-0.53.15C1277.22,310.48,1277.39,310.36,1277.55,310.26Z" transform="translate(-1105.04 -99.52)"/><path class="cls-3" d="M1279.67,272.79c0.56,13.68-10.92,4.93-10.92,4.93l-0.07-.33v0a107.41,107.41,0,0,0,10.76-5.39Z" transform="translate(-1105.04 -99.52)"/><path class="cls-6" d="M1277.06,310.56l-22.47,6.35c-0.44-8.37,21-15,23-6.64C1277.39,310.36,1277.22,310.48,1277.06,310.56Z" transform="translate(-1105.04 -99.52)"/><path class="cls-3" d="M1251.1,282c-9,10.92-13.07-1.55-13.07-1.55l0.13-.88a59.09,59.09,0,0,0,13,1.61Z" transform="translate(-1105.04 -99.52)"/><path class="cls-7" d="M1268.76,277.73s11.47,8.75,10.92-4.93l-0.22-.8c11.61-6.44,19.25-11.62,20,2.8,0.61,12.47-8.29,26.91-21.85,35.47-2-8.32-23.4-1.72-23,6.64l22.47-6.35a48,48,0,0,1-18.47,6.79c-23.52,3.31-43.52-12.88-44.38-30.53-0.53-10.83,3.87-11.84,11.2-10.36l-0.16,1.09s1.05,12,11.64,2.73l0.15-1c0.37,0.1.74,0.18,1.12,0.27l-0.13.88s4.09,12.47,13.07,1.55l0-.82a38.18,38.18,0,0,0,5.67-.38,48.51,48.51,0,0,0,11.89-3.43v0Z" transform="translate(-1105.04 -99.52)"/><path class="cls-3" d="M1236.89,280.27c-10.59,9.3-11.64-2.73-11.64-2.73l0.16-1.09c3.33,0.65,7.27,1.85,11.63,2.86Z" transform="translate(-1105.04 -99.52)"/><path class="cls-8" d="M1277.06,310.56a48,48,0,0,1-18.47,6.79c-23.52,3.31-43.52-12.88-44.38-30.53-0.53-10.83,3.87-11.84,11.2-10.36,3.33,0.65,7.27,1.85,11.63,2.86,0.37,0.1.74,0.18,1.12,0.27a59.09,59.09,0,0,0,13,1.61,38.18,38.18,0,0,0,5.67-.38,48.51,48.51,0,0,0,11.89-3.43,107.41,107.41,0,0,0,10.76-5.39c11.61-6.44,19.25-11.62,20,2.8,0.61,12.47-8.29,26.91-21.85,35.47" transform="translate(-1105.04 -99.52)"/><path class="cls-9" d="M1254.59,316.91c-0.44-8.37,21-15,23-6.64,0,0,0,.1,0,0.15" transform="translate(-1105.04 -99.52)"/><line class="cls-8" x1="172.02" y1="211.04" x2="149.55" y2="217.39"/><path class="cls-10" d="M1225.25,277.54s1.05,12,11.64,2.73" transform="translate(-1105.04 -99.52)"/><path class="cls-10" d="M1238,280.46s4.09,12.47,13.07,1.55" transform="translate(-1105.04 -99.52)"/><path class="cls-10" d="M1268.76,277.73s11.47,8.75,10.92-4.93" transform="translate(-1105.04 -99.52)"/></svg>