<svg id="Layer_1" data-name="Layer 1" xmlns="http://www.w3.org/2000/svg" xmlns:xlink="http://www.w3.org/1999/xlink" viewBox="0 0 209.35 197.76"><defs><style>.cls-1,.cls-3{fill:none;}.cls-2{fill:#f1cf41;}.cls-3{stroke:#eed87b;stroke-width:6px;}.cls-3,.cls-5,.cls-7,.cls-8{stroke-miterlimit:10;}.cls-4{fill:#331e02;}.cls-5{fill:#7f2828;stroke:#331e02;}.cls-6{clip-path:url(#clip-path);}.cls-7{fill:#fff;stroke:#000;stroke-width:0.5px;}.cls-8{fill:#5fb2ec;stroke:#fff;stroke-linecap:round;stroke-width:0.25px;}.cls-9{fill:#95cfe9;}</style><clipPath id="clip-path" transform="translate(-1181.33 -1416.87)"><path class="cls-1" d="M1332.82,1559.75s-34.64-11.4-46.64-12.06-46.42,8-49.64,11.61c0,0,11.23-21.38,17.27-27,6.59-6.13,22.8-12.88,32.06-13.06,9.46-.18,26.64,6.44,33.3,12.77C1325.21,1537.77,1332.82,1559.75,1332.82,1559.75Z"/></clipPath></defs><title>overwhelmed</title><path class="cls-2" d="M1184.33,1515.75c0-53,45.52-95.88,101.68-95.88s101.67,42.93,101.67,95.88-45.52,95.88-101.67,95.88S1184.33,1568.7,1184.33,1515.75Z" transform="translate(-1181.33 -1416.87)"/><path class="cls-3" d="M1387.68,1515.75c0,52.95-45.52,95.88-101.67,95.88s-101.68-42.93-101.68-95.88,45.52-95.88,101.68-95.88S1387.68,1462.8,1387.68,1515.75Z" transform="translate(-1181.33 -1416.87)"/><path class="cls-4" d="M1266.57,1485.27l0,0.49c0,0.31-.06.78-0.16,1.35a16,16,0,0,1-.48,2.09,20.7,20.7,0,0,1-1,2.63c-0.23.46-.49,0.94-0.75,1.44s-0.62,1-.95,1.47a20,20,0,0,1-2.49,2.89,21.38,21.38,0,0,1-3.23,2.55,23.78,23.78,0,0,1-3.78,1.92,24.38,24.38,0,0,1-8,1.68,25.27,25.27,0,0,1-6.93-.66,21.45,21.45,0,0,1-4.6-1.64,11.17,11.17,0,0,1-1.62-.93l0.48-.07c0.31,0,.77-0.12,1.33-0.18,1.14-.16,2.73-0.37,4.57-0.66s3.94-.64,6.09-1.14c1.08-.23,2.16-0.55,3.26-0.85s2.17-.67,3.21-1.12,2.06-.89,3.06-1.37l1.44-.8c0.45-.3.94-0.55,1.37-0.85,0.89-.59,1.73-1.2,2.52-1.82l1.14-.94,1-.94c0.65-.63,1.29-1.22,1.81-1.76s1-1,1.41-1.45,0.71-.77.93-1Z" transform="translate(-1181.33 -1416.87)"/><path class="cls-4" d="M1304.55,1485.27l0.35,0.34c0.21,0.23.55,0.55,0.93,1s0.9,0.9,1.41,1.45,1.16,1.13,1.81,1.76l1,0.94,1.14,0.94c0.79,0.63,1.63,1.24,2.52,1.82,0.44,0.3.92,0.55,1.37,0.85l1.44,0.8c1,0.47,2,1,3.06,1.37s2.13,0.77,3.21,1.12,2.17,0.62,3.26.85c2.15,0.5,4.25.85,6.09,1.14s3.43,0.49,4.57.66c0.56,0.06,1,.15,1.33.18l0.48,0.07a11.17,11.17,0,0,1-1.62.93,21.45,21.45,0,0,1-4.6,1.64,25.27,25.27,0,0,1-6.93.66,24.38,24.38,0,0,1-8-1.68,23.78,23.78,0,0,1-3.78-1.92,21.38,21.38,0,0,1-3.23-2.55,20,20,0,0,1-2.49-2.89c-0.33-.51-0.67-1-0.95-1.47s-0.52-1-.75-1.44a20.69,20.69,0,0,1-1-2.63,16,16,0,0,1-.48-2.09c-0.1-.57-0.12-1-0.16-1.35Z" transform="translate(-1181.33 -1416.87)"/><path class="cls-4" d="M1259,1457.15s-0.22.75-.67,2c-0.24.63-.47,1.42-0.87,2.27s-0.9,1.82-1.48,2.86a34.62,34.62,0,0,1-2,3.2,36.65,36.65,0,0,1-2.59,3.33,20.08,20.08,0,0,1-1.48,1.67c-0.52.54-1.05,1.09-1.6,1.63-1.07,1.11-2.29,2.08-3.45,3.12s-2.44,1.93-3.68,2.82q-0.94.65-1.88,1.27c-0.62.42-1.24,0.82-1.87,1.18-1.24.75-2.46,1.44-3.65,2s-2.33,1.13-3.38,1.6a45.53,45.53,0,0,1-5.25,2,20.91,20.91,0,0,1-2.06.54l1.71-1.26,4.46-3.24,2.94-2.17c1-.75,2.13-1.58,3.25-2.42s2.24-1.76,3.42-2.62l3.45-2.78c1.11-1,2.29-1.89,3.36-2.88s2.19-1.9,3.15-2.89,2-1.86,2.85-2.81l1.29-1.34a14.36,14.36,0,0,0,1.19-1.27c0.71-.85,1.4-1.6,2-2.29s1.08-1.38,1.5-1.9C1258.52,1457.73,1259,1457.15,1259,1457.15Z" transform="translate(-1181.33 -1416.87)"/><path class="cls-4" d="M1310.66,1456.93s0.58,0.52,1.52,1.49c0.48,0.47,1,1.09,1.69,1.73s1.46,1.3,2.25,2.07a14.36,14.36,0,0,0,1.31,1.14l1.42,1.2c0.93,0.86,2.05,1.63,3.13,2.5s2.28,1.67,3.43,2.55,2.43,1.66,3.63,2.52l3.72,2.42c1.26,0.74,2.45,1.56,3.67,2.26s2.36,1.43,3.48,2.07l3.14,1.86,4.77,2.76,1.83,1.07a20.92,20.92,0,0,1-2.11-.33,45.52,45.52,0,0,1-5.42-1.41c-1.1-.36-2.3-0.74-3.53-1.25s-2.53-1-3.84-1.66c-0.67-.29-1.32-0.63-2-1s-1.33-.7-2-1.07c-1.33-.76-2.65-1.58-4-2.42s-2.57-1.75-3.75-2.75c-0.6-.48-1.18-1-1.76-1.46a20.1,20.1,0,0,1-1.65-1.5,36.65,36.65,0,0,1-2.92-3,34.61,34.61,0,0,1-2.35-3c-0.68-1-1.26-1.89-1.76-2.69s-0.8-1.56-1.1-2.16C1311,1457.65,1310.66,1456.93,1310.66,1456.93Z" transform="translate(-1181.33 -1416.87)"/><path class="cls-5" d="M1332.49,1558.42c-18-11-36.77-11.74-46.31-11.72-14.55,0-28.16,1.5-45.69,11.72,0,0,7.28-21.5,13.32-27.11,6.59-6.13,22.8-12.88,32.06-13.06,9.46-.18,26.84,6.24,33.3,12.77C1326.15,1538.08,1332.49,1558.42,1332.49,1558.42Z" transform="translate(-1181.33 -1416.87)"/><g class="cls-6"><path class="cls-7" d="M1334.91,1540s-36.39-11.58-48.4-11.61c-12.63,0-49.64,11.61-49.64,11.61s11.23-21.38,17.27-27c6.59-6.13,22.8-12.88,32.06-13.06,9.46-.18,26.64,6.44,33.3,12.77C1325.54,1518.43,1334.91,1540,1334.91,1540Z" transform="translate(-1181.33 -1416.87)"/></g><path class="cls-8" d="M1348.77,1517.47c5.74,5.16,4.28,13.2-1,15.06-4.17,1.47-10.63-3.75-11.07-11.17-0.76-12.86,2.05-18.77,2.29-14.36C1339,1507.61,1339.87,1509.47,1348.77,1517.47Z" transform="translate(-1181.33 -1416.87)"/><path class="cls-9" d="M1347.89,1520.42s0.17,0,.44.1a1,1,0,0,1,.47.25l0.29,0.24a3.15,3.15,0,0,1,.24.29l0.25,0.34c0.07,0.12.12,0.25,0.19,0.39a4.1,4.1,0,0,1,.29.87,5.48,5.48,0,0,1,.14.93c0,0.32,0,.63,0,1a8.64,8.64,0,0,1-.32,1.8,7.09,7.09,0,0,1-.6,1.47,5.25,5.25,0,0,1-.93,1.3,9.83,9.83,0,0,1-.19-1.55,24,24,0,0,1,0-3.13c0-.54.07-1.08,0.09-1.57,0-.24,0-0.49,0-0.7a3.83,3.83,0,0,0,0-.62,3.49,3.49,0,0,0-.07-0.51,1,1,0,0,0-.14-0.44C1348,1520.58,1347.89,1520.42,1347.89,1520.42Z" transform="translate(-1181.33 -1416.87)"/><path class="cls-8" d="M1218.22,1530.22c-6.08,4.76-5.17,12.88,0,15.09,4.06,1.75,10.86-3,11.81-10.39,1.64-12.78-.76-18.87-1.3-14.48C1228.61,1521,1227.65,1522.84,1218.22,1530.22Z" transform="translate(-1181.33 -1416.87)"/><path class="cls-9" d="M1218.89,1533.22s-0.07.15-.22,0.39a1,1,0,0,0-.17.43,3.5,3.5,0,0,0-.1.5,3.83,3.83,0,0,0-.06.62c0,0.21,0,.46,0,0.7,0,0.49,0,1,0,1.57a24,24,0,0,1-.17,3.13,9.84,9.84,0,0,1-.3,1.53,5.25,5.25,0,0,1-.84-1.36,7.09,7.09,0,0,1-.5-1.5,8.64,8.64,0,0,1-.2-1.81c0-.32,0-0.63.07-0.95a5.48,5.48,0,0,1,.21-0.92,4.1,4.1,0,0,1,.35-0.84c0.07-.13.14-0.26,0.21-0.37l0.27-.32a3.15,3.15,0,0,1,.26-0.28l0.31-.22a1,1,0,0,1,.49-0.22C1218.73,1533.23,1218.89,1533.22,1218.89,1533.22Z" transform="translate(-1181.33 -1416.87)"/><path class="cls-8" d="M1358,1564.17c4.1,6.54.49,13.87-5.09,14.21-4.41.27-9.19-6.52-7.57-13.78,2.8-12.57,7.13-17.48,6.14-13.18C1351.37,1552,1351.66,1554,1358,1564.17Z" transform="translate(-1181.33 -1416.87)"/><path class="cls-9" d="M1356.37,1566.76s0.15,0.07.39,0.22a1,1,0,0,1,.39.37l0.22,0.31a3.14,3.14,0,0,1,.15.35l0.14,0.39c0,0.13,0,.28.07,0.42a4.1,4.1,0,0,1,0,.91,5.48,5.48,0,0,1-.12.94c-0.06.31-.16,0.61-0.25,0.92a8.64,8.64,0,0,1-.8,1.64,7.09,7.09,0,0,1-1,1.24,5.25,5.25,0,0,1-1.25,1,9.84,9.84,0,0,1,.24-1.54,24,24,0,0,1,.91-3c0.17-.51.37-1,0.51-1.48,0.07-.23.16-0.46,0.2-0.67a3.82,3.82,0,0,0,.15-0.6,3.5,3.5,0,0,0,.08-0.5,1,1,0,0,0,0-.46C1356.38,1566.93,1356.37,1566.76,1356.37,1566.76Z" transform="translate(-1181.33 -1416.87)"/><path class="cls-8" d="M1224,1584.4c2.81,7.19-2.12,13.72-7.65,13-4.38-.56-7.81-8.13-4.86-15,5.1-11.83,10.27-15.84,8.5-11.8C1219.77,1571.21,1219.67,1573.24,1224,1584.4Z" transform="translate(-1181.33 -1416.87)"/><path class="cls-9" d="M1221.92,1586.64s0.14,0.1.35,0.29a1,1,0,0,1,.31.44l0.16,0.35a3.15,3.15,0,0,1,.08.37l0.07,0.41c0,0.14,0,.28,0,0.43a4.1,4.1,0,0,1-.13.9,5.48,5.48,0,0,1-.29.9c-0.12.3-.27,0.57-0.42,0.85a8.64,8.64,0,0,1-1.09,1.46,7.09,7.09,0,0,1-1.2,1,5.25,5.25,0,0,1-1.41.74,9.83,9.83,0,0,1,.53-1.47,24,24,0,0,1,1.45-2.77c0.27-.47.55-0.93,0.78-1.36,0.11-.21.24-0.42,0.33-0.62a3.83,3.83,0,0,0,.26-0.56,3.49,3.49,0,0,0,.17-0.48,1,1,0,0,0,.07-0.45C1221.9,1586.81,1221.92,1586.64,1221.92,1586.64Z" transform="translate(-1181.33 -1416.87)"/></svg>