<svg id="Layer_1" data-name="Layer 1" xmlns="http://www.w3.org/2000/svg" xmlns:xlink="http://www.w3.org/1999/xlink" viewBox="0 0 209.36 197.76"><defs><style>.cls-1{fill:none;}.cls-2{fill:#f65454;stroke:#dd6475;stroke-width:6px;}.cls-2,.cls-4{stroke-miterlimit:10;}.cls-3{fill:#331e02;}.cls-4{fill:#7f2828;stroke:#331e02;}.cls-5{clip-path:url(#clip-path);}.cls-6{fill:#fff;stroke:#000;stroke-linecap:round;stroke-linejoin:round;stroke-width:0.5px;}</style><clipPath id="clip-path" transform="translate(-1161.51 -666.79)"><path class="cls-1" d="M1298,819.3s-24.24-2.93-32.36-2.82-31.82,3.6-31.82,3.6c-9.94.12-18.18-7.36-18.3-16.63h0c-0.12-9.27,7.91-16.95,17.86-17.07,0,0,23.88,4.69,31.94,4.31,12-.57,32.23-5.09,32.23-5.09,9.94-.12,18.18,7.36,18.3,16.63h0C1316,811.5,1308,819.18,1298,819.3Z"/></clipPath></defs><title>rage</title><ellipse class="cls-2" cx="104.68" cy="98.88" rx="101.68" ry="95.88"/><ellipse class="cls-3" cx="139" cy="98.23" rx="8.1" ry="8.29"/><ellipse class="cls-3" cx="66" cy="97.23" rx="8.1" ry="8.29"/><path class="cls-3" d="M1240.4,760.66s-0.65-.44-1.72-1.26c-0.54-.4-1.17-0.93-1.92-1.48s-1.63-1.08-2.51-1.73a14.34,14.34,0,0,0-1.46-.94l-1.58-1c-1-.72-2.26-1.33-3.45-2s-2.49-1.33-3.76-2-2.64-1.3-4-2l-4-1.87c-1.36-.56-2.65-1.2-4-1.72s-2.54-1.09-3.74-1.56l-3.37-1.39-5.11-2.06-2-.81a20.9,20.9,0,0,1,2.13,0,45.53,45.53,0,0,1,5.57.63c1.14,0.2,2.38.41,3.67,0.74s2.65,0.67,4,1.1c0.7,0.2,1.4.43,2.1,0.69s1.42,0.51,2.13.78c1.42,0.56,2.84,1.19,4.26,1.84s2.79,1.37,4.1,2.19c0.66,0.39,1.31.8,1.94,1.2a20.07,20.07,0,0,1,1.84,1.26,36.63,36.63,0,0,1,3.32,2.61,34.64,34.64,0,0,1,2.75,2.61c0.81,0.87,1.51,1.69,2.13,2.41s1,1.43,1.39,2C1240,760,1240.4,760.66,1240.4,760.66Z" transform="translate(-1161.51 -666.79)"/><path class="cls-3" d="M1290.39,759.16s0.39-.67,1.14-1.8c0.39-.55.8-1.26,1.39-2s1.31-1.54,2.13-2.41a34.64,34.64,0,0,1,2.75-2.61,36.63,36.63,0,0,1,3.32-2.61,20.07,20.07,0,0,1,1.84-1.26c0.64-.4,1.28-0.8,1.94-1.2,1.3-.82,2.72-1.46,4.1-2.19s2.83-1.28,4.26-1.84q1.07-.41,2.13-0.78c0.7-.26,1.4-0.5,2.1-0.69,1.39-.43,2.74-0.8,4-1.1s2.53-.53,3.67-0.74a45.53,45.53,0,0,1,5.57-.63,20.9,20.9,0,0,1,2.13,0l-2,.81-5.11,2.06-3.37,1.39c-1.2.48-2.45,1-3.74,1.56s-2.6,1.16-4,1.72l-4,1.87c-1.32.68-2.68,1.28-4,2s-2.58,1.31-3.76,2-2.4,1.32-3.45,2l-1.58,1a14.34,14.34,0,0,0-1.46.94c-0.89.65-1.75,1.22-2.51,1.73s-1.38,1.08-1.92,1.48C1291,758.73,1290.39,759.16,1290.39,759.16Z" transform="translate(-1161.51 -666.79)"/><path class="cls-4" d="M1298.69,819.6s-24.24-3-32.36-2.93-31.82,3.74-31.82,3.74c-9.94.13-18.18-7.65-18.3-17.27h0c-0.12-9.62,7.91-17.6,17.86-17.73,0,0,23.88,4.87,31.94,4.48,12-.59,32.23-5.29,32.23-5.29,9.94-.13,18.18,7.65,18.3,17.27h0C1316.67,811.5,1308.63,819.47,1298.69,819.6Z" transform="translate(-1161.51 -666.79)"/><g class="cls-5"><rect class="cls-6" x="126.49" y="117.27" width="10.67" height="8.99" rx="4.49" ry="4.49"/><rect class="cls-6" x="109.83" y="119.84" width="10" height="9.63" rx="4.81" ry="4.81"/><rect class="cls-6" x="83.16" y="118.56" width="11.33" height="10.27" rx="5.13" ry="5.13"/><rect class="cls-6" x="127.83" y="146.16" width="11.33" height="9.63" rx="4.81" ry="4.81"/><rect class="cls-6" x="74.49" y="145.83" width="11.33" height="8.99" rx="4.49" ry="4.49"/></g></svg>