<svg id="Layer_1" data-name="Layer 1" xmlns="http://www.w3.org/2000/svg" xmlns:xlink="http://www.w3.org/1999/xlink" viewBox="0 0 209.36 197.76"><defs><style>.cls-1,.cls-6,.cls-7,.cls-8{fill:none;}.cls-2{fill:#f1cf41;stroke:#eed87b;stroke-width:6px;}.cls-2,.cls-4,.cls-6,.cls-7,.cls-8{stroke-miterlimit:10;}.cls-3{fill:#331e02;}.cls-4,.cls-8{stroke:#331e02;}.cls-4{fill:url(#linear-gradient);}.cls-5{clip-path:url(#clip-path);}.cls-6{stroke:#282828;}.cls-7{stroke:#686868;stroke-width:0.5px;}.cls-8{stroke-linecap:round;stroke-width:4px;}</style><linearGradient id="linear-gradient" x1="1235" y1="1043.67" x2="1316.91" y2="1043.67" gradientUnits="userSpaceOnUse"><stop offset="0" stop-color="#a9a9a9"/><stop offset="0.04" stop-color="#c1c1c1"/><stop offset="0.09" stop-color="#d8d8d8"/><stop offset="0.14" stop-color="#e9e9e9"/><stop offset="0.21" stop-color="#f6f6f6"/><stop offset="0.3" stop-color="#fdfdfd"/><stop offset="0.51" stop-color="#fff"/><stop offset="0.71" stop-color="#fdfdfd"/><stop offset="0.8" stop-color="#f6f6f6"/><stop offset="0.86" stop-color="#e9e9e9"/><stop offset="0.92" stop-color="#d8d8d8"/><stop offset="0.96" stop-color="#c1c1c1"/><stop offset="1" stop-color="#a9a9a9"/></linearGradient><clipPath id="clip-path" transform="translate(-1170.51 -898.79)"><path class="cls-1" d="M1278.27,1044.21c-18,7.14-18.81,10.35-26,11.69-7.77,1.46-17.31-4.55-17.31-11.69s6.49-13,14.42-13h51.2c7.93,0,20.9,4.14,13.7,7.14C1303.22,1043,1282.29,1042.62,1278.27,1044.21Z"/></clipPath></defs><title>stressed</title><ellipse class="cls-2" cx="104.68" cy="98.88" rx="101.68" ry="95.88"/><ellipse class="cls-3" cx="139" cy="98.23" rx="8.1" ry="8.29"/><ellipse class="cls-3" cx="66" cy="97.23" rx="8.1" ry="8.29"/><path class="cls-3" d="M1252,981.56s-0.77-.09-2.1-0.32c-0.66-.11-1.47-0.28-2.39-0.42s-1.94-.2-3-0.37a14.36,14.36,0,0,0-1.73-.16l-1.86-.14c-1.26-.15-2.62-0.13-4-0.21s-2.82,0-4.28-.07-2.94.07-4.42,0.08l-4.43.21c-1.46.14-2.91,0.17-4.3,0.31s-2.75.21-4,.35l-3.64.33-5.49.55-2.11.2a20.88,20.88,0,0,1,1.9-1,45.52,45.52,0,0,1,5.22-2c1.1-.35,2.3-0.74,3.59-1s2.66-.64,4.08-0.9c0.71-.15,1.44-0.27,2.18-0.36l2.25-.3c1.52-.16,3.07-0.26,4.62-0.34s3.11-.08,4.65,0c0.77,0,1.53.1,2.28,0.16a20.08,20.08,0,0,1,2.21.26,36.65,36.65,0,0,1,4.15.77,34.63,34.63,0,0,1,3.65,1c1.12,0.39,2.12.8,3,1.15s1.56,0.8,2.16,1.11C1251.38,981.15,1252,981.56,1252,981.56Z" transform="translate(-1170.51 -898.79)"/><path class="cls-3" d="M1296.76,981.1s0.64-.44,1.79-1.14c0.58-.34,1.26-0.8,2.11-1.21s1.85-.84,2.95-1.28a34.62,34.62,0,0,1,3.6-1.2,36.63,36.63,0,0,1,4.12-.95,20.09,20.09,0,0,1,2.2-.36c0.75-.09,1.5-0.18,2.27-0.26,1.53-.19,3.09-0.17,4.64-0.24s3.11,0,4.63.14q1.14,0.09,2.26.2c0.75,0.06,1.48.15,2.2,0.27,1.44,0.2,2.82.43,4.12,0.72s2.52,0.59,3.64.89a45.53,45.53,0,0,1,5.31,1.8,20.94,20.94,0,0,1,1.94.88l-2.12-.1-5.51-.31-3.65-.17c-1.29-.08-2.65-0.12-4-0.17s-2.85-.05-4.31-0.13l-4.43,0c-1.48.05-3,0-4.42,0.11s-2.9.09-4.27,0.25-2.73.17-4,.38l-1.85.22a14.36,14.36,0,0,0-1.72.23c-1.08.21-2.1,0.36-3,.5s-1.71.39-2.36,0.52C1297.53,981,1296.76,981.1,1296.76,981.1Z" transform="translate(-1170.51 -898.79)"/><path class="cls-4" d="M1278.53,1044.22c-18.14,7.27-18.93,10.53-26.12,11.9-7.81,1.48-17.41-4.63-17.41-11.9s6.53-13.22,14.51-13.22H1301c8,0,21,4.21,13.78,7.27C1303.63,1043,1282.57,1042.6,1278.53,1044.22Z" transform="translate(-1170.51 -898.79)"/><g class="cls-5"><line class="cls-6" x1="143.08" y1="143.81" x2="63.03" y2="143.81"/><line class="cls-7" x1="102.93" y1="131.13" x2="102.94" y2="156.58"/><line class="cls-7" x1="89.73" y1="130.77" x2="89.72" y2="156.79"/><line class="cls-7" x1="78.66" y1="130.82" x2="78.66" y2="156.79"/><line class="cls-7" x1="69.76" y1="132.98" x2="69.76" y2="154.85"/><line class="cls-7" x1="115.89" y1="130.84" x2="115.92" y2="157.01"/><line class="cls-7" x1="127.46" y1="130.82" x2="127.46" y2="156.58"/><line class="cls-7" x1="136.84" y1="133.05" x2="136.78" y2="154.52"/></g><path class="cls-8" d="M1339.2,944.14c-7-4.3-13.23,4.83-5.92,9.32" transform="translate(-1170.51 -898.79)"/><path class="cls-8" d="M1320.28,951.22c6.72-4.73,1.15-14.29-5.88-9.35" transform="translate(-1170.51 -898.79)"/><path class="cls-8" d="M1323.55,929.64c-2.12,8,8.2,11.65,10.41,3.23" transform="translate(-1170.51 -898.79)"/></svg>